<?xml version="1.0" encoding="utf-8"?>
<!-- Generator: Adobe Illustrator 17.1.0, SVG Export Plug-In . SVG Version: 6.00 Build 0)  -->
<!DOCTYPE svg PUBLIC "-//W3C//DTD SVG 1.1//EN" "http://www.w3.org/Graphics/SVG/1.1/DTD/svg11.dtd">
<svg version="1.1" id="Layer_1" xmlns="http://www.w3.org/2000/svg" xmlns:xlink="http://www.w3.org/1999/xlink" x="0px" y="0px"
	 viewBox="0 0 153 37" enable-background="new 0 0 153 37" xml:space="preserve">
<g>
	<g>
		<defs>
			<path id="SVGID_1_" d="M22.46,5.317c0.351,0.174,0.7,0.355,1.045,0.549c0.401,0.225,0.791,0.464,1.174,0.711
				c-1.989,0.824-3.93,1.85-5.788,3.095c-0.138,0.092-0.266,0.19-0.401,0.283c-3.442,2.377-6.298,5.291-8.534,8.554
				c-0.093-0.134-0.191-0.263-0.283-0.4c-1.244-1.86-2.271-3.8-3.096-5.789c-0.246,0.383-0.485,0.774-0.709,1.174
				c-0.195,0.345-0.375,0.694-0.55,1.045c0.559-1.61,1.269-3.192,2.149-4.725c0.817-1.426,1.747-2.746,2.764-3.965
				c0.595-0.712,1.219-1.389,1.872-2.03c0.434-0.02,0.869-0.03,1.305-0.03C16.44,3.789,19.498,4.287,22.46,5.317"/>
		</defs>
		
			<linearGradient id="SVGID_2_" gradientUnits="userSpaceOnUse" x1="2786.5183" y1="5.7746" x2="2796.45" y2="16.2159" gradientTransform="matrix(-1 0 0 1 2804.3496 0)">
			<stop  offset="0" style="stop-color:#ED1C24"/>
			<stop  offset="0.3481" style="stop-color:#EA1B23"/>
			<stop  offset="0.5574" style="stop-color:#E2171E"/>
			<stop  offset="0.73" style="stop-color:#D41116"/>
			<stop  offset="0.8818" style="stop-color:#C0090C"/>
			<stop  offset="1" style="stop-color:#AA0000"/>
		</linearGradient>
		<use xlink:href="#SVGID_1_"  overflow="visible" fill="url(#SVGID_2_)"/>
		<clipPath id="SVGID_3_">
			<use xlink:href="#SVGID_1_"  overflow="visible"/>
		</clipPath>
		
			<linearGradient id="SVGID_4_" gradientUnits="userSpaceOnUse" x1="2785.3215" y1="6.9132" x2="2795.2532" y2="17.3542" gradientTransform="matrix(-1 0 0 1 2804.3496 0)">
			<stop  offset="0" style="stop-color:#ED1C24"/>
			<stop  offset="0.3481" style="stop-color:#EA1B23"/>
			<stop  offset="0.5574" style="stop-color:#E2171E"/>
			<stop  offset="0.73" style="stop-color:#D41116"/>
			<stop  offset="0.8818" style="stop-color:#C0090C"/>
			<stop  offset="1" style="stop-color:#AA0000"/>
		</linearGradient>
		<polygon clip-path="url(#SVGID_3_)" fill="url(#SVGID_4_)" points="31.841,9.451 12.764,-5.63 -1.844,12.849 17.232,27.929 		"/>
	</g>
	<g>
		<defs>
			<path id="SVGID_5_" d="M9.673,18.11c0.092,0.138,0.19,0.266,0.283,0.401c2.378,3.441,5.291,6.298,8.555,8.534
				c-0.135,0.092-0.264,0.191-0.401,0.283c-1.859,1.244-3.8,2.27-5.789,3.095c0.383,0.247,0.774,0.485,1.174,0.71
				c0.345,0.194,0.695,0.374,1.045,0.549c-1.61-0.56-3.192-1.269-4.725-2.149c-1.426-0.817-2.746-1.746-3.965-2.764
				C5.138,26.175,4.46,25.55,3.82,24.897c-0.163-3.457,0.319-6.97,1.497-10.357c0.175-0.351,0.355-0.7,0.55-1.045
				c0.225-0.401,0.463-0.792,0.71-1.174C7.402,14.311,8.428,16.251,9.673,18.11"/>
		</defs>
		
			<linearGradient id="SVGID_6_" gradientUnits="userSpaceOnUse" x1="2798.2458" y1="19.4575" x2="2787.6775" y2="28.8801" gradientTransform="matrix(-1 0 0 1 2804.3496 0)">
			<stop  offset="0" style="stop-color:#9FD92B"/>
			<stop  offset="0.4291" style="stop-color:#9DD728"/>
			<stop  offset="0.6871" style="stop-color:#97D220"/>
			<stop  offset="0.8991" style="stop-color:#8DCA12"/>
			<stop  offset="1" style="stop-color:#86C408"/>
		</linearGradient>
		<use xlink:href="#SVGID_5_"  overflow="visible" fill="url(#SVGID_6_)"/>
		<clipPath id="SVGID_7_">
			<use xlink:href="#SVGID_5_"  overflow="visible"/>
		</clipPath>
		
			<linearGradient id="SVGID_8_" gradientUnits="userSpaceOnUse" x1="2797.3037" y1="18.4009" x2="2786.7356" y2="27.8233" gradientTransform="matrix(-1 0 0 1 2804.3496 0)">
			<stop  offset="0" style="stop-color:#8CC63F"/>
			<stop  offset="0.3801" style="stop-color:#8AC33D"/>
			<stop  offset="0.6086" style="stop-color:#82BB37"/>
			<stop  offset="0.797" style="stop-color:#75AD2C"/>
			<stop  offset="0.9627" style="stop-color:#63991D"/>
			<stop  offset="1" style="stop-color:#5E9319"/>
		</linearGradient>
		<polygon clip-path="url(#SVGID_7_)" fill="url(#SVGID_8_)" points="9.37,5.096 -5.761,24.236 12.799,38.909 27.93,19.768 		"/>
	</g>
	<g>
		<defs>
			<path id="SVGID_9_" d="M27.328,18.89c1.244,1.859,2.271,3.8,3.096,5.789c0.246-0.384,0.485-0.774,0.71-1.174
				c0.194-0.345,0.375-0.694,0.549-1.045c-0.56,1.61-1.268,3.192-2.148,4.725c-0.818,1.426-1.747,2.746-2.765,3.965
				c-0.595,0.712-1.219,1.389-1.871,2.03c-3.457,0.162-6.971-0.32-10.358-1.498c-0.351-0.175-0.7-0.355-1.045-0.549
				c-0.401-0.225-0.792-0.464-1.175-0.711c1.99-0.824,3.93-1.85,5.789-3.095c0.138-0.092,0.266-0.19,0.401-0.283
				c3.442-2.378,6.298-5.291,8.534-8.554C27.138,18.625,27.236,18.754,27.328,18.89"/>
		</defs>
		
			<linearGradient id="SVGID_10_" gradientUnits="userSpaceOnUse" x1="2786.584" y1="32.6628" x2="2774.551" y2="20.4389" gradientTransform="matrix(-1 0 0 1 2804.3496 0)">
			<stop  offset="0" style="stop-color:#FFC814"/>
			<stop  offset="1" style="stop-color:#DE8C00"/>
			<stop  offset="1" style="stop-color:#CC9600"/>
		</linearGradient>
		<use xlink:href="#SVGID_9_"  overflow="visible" fill="url(#SVGID_10_)"/>
		<clipPath id="SVGID_11_">
			<use xlink:href="#SVGID_9_"  overflow="visible"/>
		</clipPath>
		
			<linearGradient id="SVGID_12_" gradientUnits="userSpaceOnUse" x1="2785.4187" y1="29.8915" x2="2776.76" y2="18.6865" gradientTransform="matrix(-1 0 0 1 2804.3496 0)">
			<stop  offset="0" style="stop-color:#FFC814"/>
			<stop  offset="0.3481" style="stop-color:#FEC513"/>
			<stop  offset="0.5574" style="stop-color:#FABD11"/>
			<stop  offset="0.73" style="stop-color:#F4AF0C"/>
			<stop  offset="0.8818" style="stop-color:#EC9B06"/>
			<stop  offset="1" style="stop-color:#E38500"/>
		</linearGradient>
		<polygon clip-path="url(#SVGID_11_)" fill="url(#SVGID_12_)" points="5.096,27.63 24.237,42.762 38.91,24.202 19.768,9.071 		"/>
	</g>
	<g>
		<defs>
			<path id="SVGID_13_" d="M27.186,7.466c1.427,0.818,2.747,1.747,3.965,2.765c0.713,0.594,1.389,1.219,2.03,1.871
				c0.163,3.457-0.32,6.971-1.497,10.358c-0.175,0.351-0.356,0.7-0.55,1.045c-0.225,0.401-0.464,0.792-0.711,1.174
				c-0.824-1.99-1.85-3.93-3.095-5.788c-0.091-0.137-0.19-0.266-0.283-0.401c-2.378-3.442-5.29-6.298-8.554-8.534
				c0.135-0.093,0.263-0.191,0.401-0.283c1.859-1.245,3.8-2.27,5.789-3.095c-0.384-0.247-0.774-0.485-1.174-0.71
				c-0.345-0.194-0.694-0.374-1.045-0.549C24.072,5.878,25.653,6.586,27.186,7.466"/>
		</defs>
		
			<linearGradient id="SVGID_14_" gradientUnits="userSpaceOnUse" x1="2772.9683" y1="17.9584" x2="2782.8999" y2="7.7722" gradientTransform="matrix(-1 0 0 1 2804.3496 0)">
			<stop  offset="0" style="stop-color:#479FD6"/>
			<stop  offset="0.3929" style="stop-color:#459DD3"/>
			<stop  offset="0.6291" style="stop-color:#3E95CB"/>
			<stop  offset="0.8233" style="stop-color:#3388BD"/>
			<stop  offset="0.9947" style="stop-color:#2476A9"/>
			<stop  offset="1" style="stop-color:#2375A8"/>
		</linearGradient>
		<use xlink:href="#SVGID_13_"  overflow="visible" fill="url(#SVGID_14_)"/>
		<clipPath id="SVGID_15_">
			<use xlink:href="#SVGID_13_"  overflow="visible"/>
		</clipPath>
		
			<linearGradient id="SVGID_16_" gradientUnits="userSpaceOnUse" x1="2774.2898" y1="19.2472" x2="2784.2217" y2="9.0609" gradientTransform="matrix(-1 0 0 1 2804.3496 0)">
			<stop  offset="0" style="stop-color:#479FD6"/>
			<stop  offset="0.3929" style="stop-color:#459DD3"/>
			<stop  offset="0.6291" style="stop-color:#3E95CB"/>
			<stop  offset="0.8233" style="stop-color:#3388BD"/>
			<stop  offset="0.9947" style="stop-color:#2476A9"/>
			<stop  offset="1" style="stop-color:#2375A8"/>
		</linearGradient>
		<polygon clip-path="url(#SVGID_15_)" fill="url(#SVGID_16_)" points="27.631,31.905 42.763,12.763 24.203,-1.908 9.07,17.232 		
			"/>
	</g>
	<path fill="#FFC814" d="M36.975,19.469c-0.267,5.102-2.577,9.611-6.096,12.779c-3.589,1.006-7.431,1.106-11.157,0.211
		c4.29-1.86,8.032-5.079,10.501-9.468c3.004-5.343,3.559-11.399,2.026-16.87C35.416,9.64,37.243,14.367,36.975,19.469"/>
	<path fill="#8CC63F" d="M14.009,30.221c5.344,3.004,11.4,3.56,16.871,2.026c-3.518,3.168-8.246,4.993-13.349,4.726
		c-5.1-0.268-9.61-2.577-12.779-6.096c-1.006-3.589-1.106-7.431-0.211-11.158C6.401,24.01,9.62,27.753,14.009,30.221"/>
	<path fill="#ED1C24" d="M17.279,4.541c-4.29,1.86-8.032,5.079-10.5,9.467c-3.005,5.343-3.56,11.399-2.026,16.87
		c-3.169-3.519-4.994-8.246-4.727-13.347C0.294,12.429,2.603,7.92,6.122,4.752c1.525-0.428,3.095-0.691,4.683-0.785
		c0.434-0.025,0.87-0.038,1.306-0.038C13.834,3.929,15.569,4.129,17.279,4.541"/>
	<path fill="#479FD6" d="M19.47,0.026c5.101,0.268,9.61,2.577,12.779,6.095c1.006,3.589,1.106,7.431,0.211,11.158
		c-1.859-4.29-5.079-8.032-9.468-10.5c-5.343-3.005-11.399-3.56-16.87-2.026C9.413,1.789,13.762,0,18.485,0
		C18.812,0,19.14,0.008,19.47,0.026"/>
	<g>
		<path fill="#383738" d="M42.036,25.709l1.628-2.863c0.683,0.656,1.576,1.261,2.784,1.261c1.655,0,2.731-1.103,2.731-2.81V9.583
			h3.73v11.766c0,4.15-2.574,6.067-6.171,6.067C44.978,27.416,43.297,26.944,42.036,25.709"/>
		<path fill="#383738" d="M54.466,20.746c0-3.598,2.522-6.645,6.698-6.645c4.202,0,6.723,3.047,6.723,6.645
			c0,3.624-2.522,6.671-6.723,6.671C56.988,27.416,54.466,24.37,54.466,20.746 M64.42,20.746c0-1.97-1.182-3.677-3.257-3.677
			c-2.075,0-3.231,1.707-3.231,3.677c0,1.996,1.156,3.703,3.231,3.703C63.238,24.449,64.42,22.741,64.42,20.746"/>
		<path fill="#383738" d="M78.146,27.102V25.5c-0.867,0.972-2.39,1.917-4.465,1.917c-2.784,0-4.097-1.523-4.097-3.992v-9.008h3.335
			v7.695c0,1.76,0.919,2.338,2.338,2.338c1.287,0,2.311-0.709,2.889-1.445v-8.588h3.336v12.686H78.146z"/>
		<polygon fill="#383738" points="95.259,27.102 92.58,18.46 89.901,27.102 86.329,27.102 82.468,14.416 85.935,14.416 
			88.299,22.952 91.083,14.416 94.051,14.416 96.835,22.952 99.199,14.416 102.665,14.416 98.804,27.102 		"/>
		<polygon fill="#383738" points="117.316,27.102 114.243,15.073 111.196,27.102 107.23,27.102 102.214,9.583 106.39,9.583 
			109.462,22.242 112.799,9.583 115.714,9.583 119.023,22.242 122.07,9.583 126.272,9.583 121.281,27.102 		"/>
		<path fill="#383738" d="M125.327,20.746c0-3.677,2.706-6.645,6.567-6.645c3.782,0,6.356,2.837,6.356,6.985v0.736h-9.429
			c0.21,1.602,1.497,2.942,3.65,2.942c1.077,0,2.574-0.473,3.388-1.261l1.471,2.154c-1.261,1.156-3.257,1.76-5.227,1.76
			C128.243,27.417,125.327,24.816,125.327,20.746 M131.894,16.753c-2.076,0-2.969,1.55-3.126,2.81h6.251
			C134.941,18.355,134.1,16.753,131.894,16.753"/>
		<path fill="#383738" d="M139.924,27.102V9.583h3.336v6.461c0.998-1.287,2.416-1.943,3.913-1.943c3.23,0,5.621,2.521,5.621,6.671
			c0,4.228-2.417,6.645-5.621,6.645c-1.524,0-2.916-0.683-3.913-1.944v1.629H139.924z M146.123,24.448
			c1.943,0,3.23-1.471,3.23-3.677c0-2.206-1.287-3.703-3.23-3.703c-1.077,0-2.311,0.63-2.863,1.471v4.491
			C143.811,23.844,145.045,24.448,146.123,24.448"/>
	</g>
</g>
</svg>
